<svg viewBox="80 15 260 290" xmlns="http://www.w3.org/2000/svg" role="img" aria-label="USHomeBuy.com icon">
  <defs>
    <pattern id="stripesDiag" width="22" height="22" patternUnits="userSpaceOnUse" patternTransform="rotate(-73)">
      <rect width="22" height="22" fill="#ffffff"/>
      <rect width="11" height="22" fill="#B7333F"/>
    </pattern>
    <pattern id="stripesHoriz" width="22" height="22" patternUnits="userSpaceOnUse">
      <rect width="22" height="22" fill="#ffffff"/>
      <rect width="22" height="11" fill="#B7333F"/>
    </pattern>
    <polygon id="star" points="0,-11 2.59,-3.4 10.46,-3.4 4.19,1.3 6.47,8.9 0,4.2 -6.47,8.9 -4.19,1.3 -10.46,-3.4 -2.59,-3.4" fill="#ffffff"/>
  </defs>

  <rect x="136" y="70" width="30" height="75" fill="#17264D"/>
  <rect x="136" y="45" width="16" height="30" fill="#17264D"/>
  <polygon points="210,25 90,135 210,135" fill="#17264D"/>
  <polygon points="210,25 330,135 210,135" fill="url(#stripesDiag)"/>
  <rect x="90" y="135" width="120" height="115" fill="#17264D"/>
  <rect x="210" y="135" width="120" height="115" fill="url(#stripesHoriz)"/>
  <rect x="138" y="250" width="48" height="48" fill="#17264D"/>

  <use href="#star" transform="translate(150,66)"/>
  <use href="#star" transform="translate(126,90)"/>
  <use href="#star" transform="translate(174,90)"/>
  <use href="#star" transform="translate(150,114)"/>
</svg>
